<?xml version="1.0" standalone="no"?>
<!DOCTYPE svg PUBLIC "-//W3C//DTD SVG 20010904//EN"
 "http://www.w3.org/TR/2001/REC-SVG-20010904/DTD/svg10.dtd">
<svg version="1.0" xmlns="http://www.w3.org/2000/svg"
 width="372.000000pt" height="420.000000pt" viewBox="0 0 372.000000 420.000000"
 preserveAspectRatio="xMidYMid meet">

<g transform="translate(0.000000,420.000000) scale(0.100000,-0.100000)"
fill="#000000" stroke="none">
<path d="M1685 3549 c-88 -33 -185 -68 -215 -78 -99 -34 -205 -71 -225 -81
-11 -4 -47 -17 -80 -29 -33 -11 -118 -41 -190 -66 -71 -26 -197 -71 -280 -100
-82 -29 -188 -67 -235 -84 -47 -18 -107 -39 -135 -47 -79 -25 -78 -20 -60
-185 8 -79 17 -157 20 -174 5 -29 12 -102 35 -325 6 -58 15 -127 20 -155 5
-27 14 -102 20 -165 5 -63 14 -149 20 -190 5 -41 17 -138 25 -215 8 -77 22
-192 30 -255 8 -63 22 -187 31 -275 9 -88 20 -176 25 -196 9 -38 -9 -26 353
-226 23 -13 59 -32 81 -43 22 -11 49 -25 60 -32 43 -28 96 -58 174 -100 45
-23 103 -55 129 -70 26 -14 65 -36 87 -47 22 -12 58 -31 80 -44 22 -13 63 -36
90 -51 28 -16 80 -46 117 -67 36 -21 69 -39 72 -39 3 0 28 -14 54 -30 27 -17
59 -30 72 -30 19 0 1326 717 1358 745 8 7 22 92 37 231 13 120 29 253 35 294
6 41 15 120 20 175 6 55 19 172 29 260 11 88 22 185 25 215 8 74 51 448 76
645 11 88 22 196 26 240 l7 80 -404 144 c-222 79 -431 154 -464 166 -33 13
-73 27 -90 31 -16 4 -34 10 -40 14 -5 4 -39 17 -75 29 -36 11 -103 34 -150 51
-155 57 -195 71 -255 91 -33 11 -74 26 -92 34 -17 8 -37 15 -45 14 -7 0 -85
-27 -173 -60z m230 -410 c19 -17 62 -65 95 -106 153 -190 221 -340 260 -576
21 -130 26 -349 11 -482 -5 -38 -6 -75 -2 -81 3 -7 57 -69 120 -138 156 -173
161 -178 176 -201 14 -22 20 3 -84 -400 -26 -99 -48 -165 -58 -172 -9 -7 -44
-13 -78 -13 -34 0 -69 6 -78 13 -9 6 -51 77 -93 157 -42 80 -79 147 -81 149
-6 7 -468 0 -475 -7 -8 -8 -44 -74 -104 -194 -59 -116 -62 -118 -142 -118
-100 0 -87 -19 -151 230 -17 63 -43 165 -60 225 l-29 110 24 32 c13 17 29 37
36 45 7 7 54 58 103 113 50 55 98 109 109 120 44 48 45 54 34 175 -26 291 17
594 112 781 63 124 264 369 302 369 10 0 33 -14 53 -31z m784 -217 c78 -28 87
-29 112 -16 37 18 73 18 111 -2 70 -36 93 -100 61 -168 -17 -34 -19 -55 -15
-124 10 -181 -92 -379 -301 -579 -83 -80 -240 -203 -258 -203 -26 0 0 31 67
79 199 145 368 351 423 518 21 62 29 196 13 219 -4 6 -29 14 -57 17 -40 4 -55
12 -82 41 -29 32 -33 42 -33 94 l0 58 -87 29 c-81 27 -102 29 -252 32 -161 3
-191 9 -174 36 3 5 87 7 197 5 182 -5 195 -6 275 -36z m-1259 -250 c0 -19 -31
-44 -130 -110 -297 -195 -503 -427 -556 -627 -19 -69 -17 -172 3 -231 30 -90
133 -171 266 -211 35 -10 47 -19 47 -33 0 -25 3 -25 -84 1 -132 39 -223 106
-274 202 -24 47 -27 62 -27 152 0 91 3 107 34 180 57 136 145 254 292 392 100
94 234 192 349 257 67 37 80 42 80 28z m619 -1537 l30 -56 -21 -47 c-11 -26
-35 -80 -54 -120 -19 -40 -34 -75 -34 -77 0 -3 -15 -37 -34 -77 -18 -40 -43
-95 -55 -122 -12 -27 -23 -47 -25 -45 -3 2 -28 56 -56 119 -66 147 -69 156
-120 273 l-43 97 27 55 27 55 164 0 163 0 31 -55z"/>
<path d="M1824 2740 c-66 -26 -85 -120 -35 -170 50 -50 103 -52 154 -5 22 21
27 34 27 73 0 53 -3 59 -44 90 -30 23 -65 27 -102 12z"/>
<path d="M1787 1073 c-2 -5 15 -54 38 -110 l42 -102 21 47 c11 26 28 67 38 92
9 25 21 49 26 55 4 5 8 13 8 17 0 10 -167 11 -173 1z"/>
</g>
</svg>
